<svg xmlns="http://www.w3.org/2000/svg" width="320" height="320"><path d="m196 34 2.201.633C219.076 40.848 236.224 52.138 252 67l2.012 1.816C269.63 83.484 280.129 103.594 286 124l.637 2.178c9.11 32.686 3.596 69.076-12.517 98.601-5.747 10.07-13.196 18.81-21.12 27.221l-1.816 2.012C235.26 270.966 214.018 280.735 192 287l-3.766 1.098c-32.16 7.615-68.436.745-96.544-16.039C83.05 266.646 75.402 259.973 68 253l-2.012-1.816C49.034 235.26 39.265 214.018 33 192l-1.098-3.766c-7.615-32.16-.745-68.436 16.039-96.544C53.354 83.05 60.027 75.402 67 68l1.816-2.012C84.74 49.034 105.982 39.265 128 33l3.766-1.098C151.812 27.156 176.315 28.24 196 34Zm-71 22-3.629 1.242C105.617 63.057 92.73 72.072 81 84l-2.523 2.527C72.583 92.733 68.195 99.563 64 107l-1.621 2.793c-12.51 23.038-15.652 52.969-8.633 78.18.41 1.344.829 2.687 1.254 4.027l.633 2.058C60.407 209.165 68.4 222.246 79 234l2.297 2.547c20.132 21.185 48.003 32.433 77.007 33.422 30.56.354 57.948-11.84 79.696-32.969 7.329-7.306 12.962-14.968 18-24l1.652-2.93c12.374-23.236 15.676-52.657 8.602-78.043-.41-1.344-.829-2.687-1.254-4.027l-.633-2.058C259.593 110.835 251.6 97.754 241 86l-2.297-2.547c-20.121-21.174-47.99-32.43-76.98-33.43-12.62-.105-24.81 1.78-36.723 5.977Z" fill="#4A4A4A"/><path d="m182 140 .031 3.213c.098 9.977.2 19.954.308 29.931.056 5.13.109 10.26.158 15.39.048 4.946.1 9.894.156 14.84.02 1.891.04 3.782.056 5.673.024 2.641.054 5.282.086 7.923l.017 2.387c-.026 3.95-.026 3.95 1.188 7.643 3.315 1.105 6.204 1.321 9.688 1.563l3.574.253L200 229v11h-79v-11l3.14-.078c1.37-.056 2.74-.114 4.11-.172l2.066-.043c3.198-.155 5.285-.41 7.881-2.342 2.36-3.097 2.31-4.942 2.32-8.814l.039-3.964c-.007-1.425-.016-2.85-.025-4.274.003-1.465.007-2.93.012-4.394.006-3.066-.003-6.133-.022-9.2-.022-3.927-.01-7.854.015-11.782.014-3.023.01-6.046 0-9.07-.003-1.447 0-2.895.01-4.343.01-2.025-.009-4.05-.028-6.075l-.01-3.49c-.62-3.617-1.583-4.796-4.508-6.959-2.866-.449-5.382-.694-8.25-.75l-2.258-.09c-1.83-.07-3.661-.117-5.492-.16v-11c6.56-1.128 13.105-1.336 19.75-1.563l3.266-.13c12.99-.461 25.988-.347 38.984-.307Z" fill="#4B4B4B"/><path d="M167.586 80.91C173.49 84.428 177.84 89.44 180 96c.837 7.603.846 14.78-4 21-4.36 4.618-8.601 7.626-15.05 8.336-7.963.095-13.814-.348-19.696-6.02-5.889-6.566-6.883-11.788-6.633-20.605.674-6.596 3.606-10.305 8.441-14.586 7.083-5.124 16.161-6.158 24.524-3.215Z" fill="#4A4A4A"/></svg>